<?xml version="1.0" encoding="UTF-8" standalone="no"?>
<!DOCTYPE svg PUBLIC "-//W3C//DTD SVG 1.1//EN" "http://www.w3.org/Graphics/SVG/1.1/DTD/svg11.dtd">
<svg width="100%" height="100%" viewBox="0 0 211 240" version="1.1" xmlns="http://www.w3.org/2000/svg" xmlns:xlink="http://www.w3.org/1999/xlink" xml:space="preserve" xmlns:serif="http://www.serif.com/" style="fill-rule:evenodd;clip-rule:evenodd;stroke-linejoin:round;stroke-miterlimit:2;">
    <g transform="matrix(1,0,0,1,-44.720376,-165.035311)">
        <g transform="matrix(2.6625,0,0,2.6625,-390.113,-820.828)">
            <g transform="matrix(1,0,0,1,11.3567,63.4853)">
                <path d="M230.939,340.104C230.939,339.019 230.169,338.573 229.225,339.113L225.784,341.096C224.841,341.634 224.073,342.078 224.073,342.078C224.073,342.078 223.304,342.521 222.364,343.062L193.159,359.924C192.218,360.467 190.681,360.467 189.738,359.925L169.463,348.23C168.524,347.688 167.762,348.134 167.774,349.218L167.918,363.621C167.927,364.705 168.708,366.032 169.654,366.569L189.732,377.984C190.677,378.52 192.218,378.52 193.162,377.981L221.318,361.903C222.265,361.363 223.035,361.812 223.039,362.9L223.039,368.076C223.039,369.163 222.274,370.491 221.329,371.039L192.8,387.511C191.854,388.055 190.319,388.045 189.386,387.495L161.556,371.053C160.624,370.499 159.854,369.163 159.854,368.076L159.854,335.544C159.854,334.455 160.627,333.125 161.568,332.584L189.738,316.319C190.681,315.778 192.218,315.778 193.159,316.319L221.512,332.687C222.451,333.232 223.983,333.215 224.912,332.655L229.249,330.032C230.177,329.47 230.169,328.568 229.229,328.025L193.159,307.197C192.218,306.657 190.681,306.657 189.738,307.197L153.671,328.025C152.73,328.568 151.961,329.898 151.961,330.986L151.961,372.633C151.961,373.721 152.73,375.054 153.671,375.597L189.738,396.423C190.681,396.964 192.218,396.964 193.159,396.423L229.229,375.597C230.169,375.054 230.939,373.721 230.939,372.633L230.939,340.104Z" style="fill:rgb(190,30,45);fill-rule:nonzero;"/>
            </g>
        </g>
    </g>
</svg>
